<svg width="562" height="941" viewBox="0 0 562 941" fill="none" xmlns="http://www.w3.org/2000/svg">
<g filter="url(#filter0_d)">
<path d="M444.779 65H117.197C97.4021 65 81.3555 81.0467 81.3555 100.841V808.335C81.3555 828.13 97.4021 844.177 117.197 844.177H444.779C464.573 844.177 480.62 828.13 480.62 808.335V100.841C480.62 81.0467 464.573 65 444.779 65Z" fill="#4D77FF"/>
<path opacity="0.2" d="M115.716 65C106.59 65 97.8375 68.6253 91.3844 75.0783C84.9314 81.5314 81.3061 90.2836 81.3061 99.4095V809.767C81.3014 814.801 82.4047 819.775 84.5377 824.336C86.6706 828.896 89.781 832.931 93.6481 836.154L326.591 65H115.716Z" fill="#F6F8FB"/>
<path d="M294.576 821.64C294.576 818.955 293.78 816.33 292.288 814.098C290.797 811.865 288.676 810.125 286.195 809.097C283.715 808.07 280.985 807.801 278.351 808.325C275.718 808.849 273.299 810.142 271.4 812.04C269.502 813.939 268.209 816.358 267.685 818.991C267.161 821.625 267.43 824.355 268.457 826.835C269.485 829.316 271.225 831.437 273.458 832.928C275.69 834.42 278.315 835.216 281 835.216C284.601 835.216 288.054 833.786 290.6 831.24C293.146 828.694 294.576 825.241 294.576 821.64V821.64Z" stroke="#F6F8FB" stroke-linecap="round" stroke-linejoin="round"/>
<path d="M444.779 65H117.197C97.4021 65 81.3555 81.0467 81.3555 100.841V808.335C81.3555 828.13 97.4021 844.177 117.197 844.177H444.779C464.573 844.177 480.62 828.13 480.62 808.335V100.841C480.62 81.0467 464.573 65 444.779 65Z" stroke="#4D77FF" stroke-linecap="round" stroke-linejoin="round"/>
<path d="M462.897 117.923H99.128V797.943H462.897V117.923Z" fill="#F6F8FB"/>
<path d="M276.335 649.494L251.478 684.742C251.478 684.742 281.099 671.314 309.634 659.688C338.168 648.062 374.034 611.381 382.081 597.978C390.128 584.574 401.828 564.877 401.828 564.877L365.987 537.255H404.519C404.519 537.255 403.606 495.292 391.98 461.204" stroke="#4D77FF" stroke-width="1.01" stroke-linecap="round" stroke-linejoin="round"/>
<path d="M264.98 664.896C260.808 663.144 256.588 661.391 252.367 659.688C223.758 648.062 187.966 611.381 179.919 597.978C171.872 584.574 160.172 564.877 160.172 564.877L196.038 537.255H157.679C157.679 537.255 158.592 495.292 170.218 461.204" stroke="#4D77FF" stroke-width="1.01" stroke-linecap="round" stroke-linejoin="round"/>
<path d="M220.055 405.319C220.055 405.319 208.923 582.081 276.335 649.493C276.335 649.493 347.449 600.668 347.449 407.442L220.055 405.319Z" fill="#F6F8FB"/>
<path d="M257.698 204.169H315.039C331.478 204.169 347.243 210.699 358.867 222.323C370.491 233.946 377.021 249.712 377.021 266.15V394.779C377.024 405.706 374.875 416.527 370.696 426.624C366.518 436.721 360.391 445.895 352.667 453.624C344.942 461.353 335.771 467.485 325.677 471.67C315.583 475.855 304.763 478.01 293.836 478.013H279.025C268.098 478.013 257.278 475.861 247.182 471.68C237.087 467.498 227.914 461.369 220.187 453.642C212.46 445.915 206.331 436.742 202.149 426.647C197.968 416.551 195.815 405.731 195.815 394.804V266.15C195.815 249.712 202.346 233.946 213.969 222.323C225.593 210.699 241.359 204.169 257.797 204.169H257.698Z" fill="#F6F8FB"/>
<path opacity="0.5" d="M257.698 204.169H315.039C331.478 204.169 347.243 210.699 358.867 222.323C370.491 233.946 377.021 249.712 377.021 266.15V394.779C377.024 405.706 374.875 416.527 370.696 426.624C366.518 436.721 360.391 445.895 352.667 453.624C344.942 461.353 335.771 467.485 325.677 471.67C315.583 475.855 304.763 478.01 293.836 478.013H279.025C268.098 478.013 257.278 475.861 247.182 471.68C237.087 467.498 227.914 461.369 220.187 453.642C212.46 445.915 206.331 436.742 202.149 426.647C197.968 416.551 195.815 405.731 195.815 394.804V266.15C195.815 249.712 202.346 233.946 213.969 222.323C225.593 210.699 241.359 204.169 257.797 204.169H257.698Z" fill="#F6F8FB"/>
<path d="M220.055 405.319C220.055 405.319 208.923 582.081 276.335 649.494C276.335 649.494 347.449 600.668 347.449 407.442L220.055 405.319Z" stroke="#4D77FF" stroke-width="1.01" stroke-linecap="round" stroke-linejoin="round"/>
<path d="M248.417 390.262C248.417 390.262 242.246 467.399 279.494 496.823C279.494 496.823 318.791 475.52 318.791 391.2L248.417 390.262Z" stroke="#4D77FF" stroke-width="1.01" stroke-linecap="round" stroke-linejoin="round"/>
<path d="M235.976 521.038L279.494 496.823L328.344 530.59" stroke="#4D77FF" stroke-width="1.01" stroke-linecap="round" stroke-linejoin="round"/>
<path d="M291.195 535.898L299.686 511.485L279.494 496.823L252.959 511.485L266.757 533.701L244.986 599.089C252.836 618.638 263.055 636.115 276.335 649.419C276.335 649.419 295.243 636.436 313.558 597.361L291.195 535.898Z" fill="#F6F8FB" stroke="#4D77FF" stroke-width="1.01" stroke-linecap="round" stroke-linejoin="round"/>
<path d="M378.177 669.174C397.512 666.021 410.631 647.792 407.478 628.457C404.326 609.123 386.096 596.004 366.762 599.156C347.427 602.309 334.308 620.538 337.461 639.873C340.613 659.208 358.843 672.326 378.177 669.174Z" fill="#F6F8FB" stroke="#4D77FF" stroke-width="1.01" stroke-linecap="round" stroke-linejoin="round"/>
<path d="M396.016 643.844C401.371 630.819 395.154 615.92 382.13 610.565C369.105 605.21 354.205 611.427 348.85 624.452C343.495 637.476 349.713 652.376 362.737 657.731C375.762 663.086 390.661 656.869 396.016 643.844Z" fill="#F6F8FB" stroke="#4D77FF" stroke-width="1.01" stroke-linecap="round" stroke-linejoin="round"/>
<path d="M372.43 639.595C370.989 639.595 369.608 639.023 368.59 638.005C367.571 636.986 366.999 635.605 366.999 634.165V425.757C366.999 424.317 367.571 422.936 368.59 421.917C369.608 420.899 370.989 420.327 372.43 420.327C373.87 420.327 375.251 420.899 376.27 421.917C377.288 422.936 377.86 424.317 377.86 425.757V634.165C377.863 634.879 377.725 635.586 377.453 636.247C377.182 636.907 376.782 637.507 376.277 638.012C375.772 638.517 375.172 638.917 374.512 639.188C373.851 639.46 373.144 639.598 372.43 639.595Z" fill="#4D77FF"/>
<path d="M201.048 715.178H200.53C195.593 714.339 148.225 668.278 143.757 655.936C139.289 643.594 140.548 623.847 140.597 623.106C140.643 622.386 140.973 621.714 141.515 621.237C142.056 620.76 142.765 620.518 143.485 620.564C144.205 620.61 144.878 620.94 145.355 621.481C145.831 622.023 146.073 622.732 146.028 623.452C146.028 623.625 144.917 642.829 148.866 654.159C152.495 664.501 194.655 705.798 201.32 709.821C205.023 708.661 218.599 696.492 223.536 684.027C223.667 683.694 223.862 683.391 224.111 683.134C224.359 682.878 224.656 682.672 224.984 682.53C225.311 682.388 225.664 682.312 226.021 682.306C226.378 682.3 226.733 682.365 227.065 682.496C227.398 682.627 227.701 682.823 227.958 683.071C228.214 683.32 228.42 683.616 228.562 683.944C228.704 684.272 228.78 684.624 228.786 684.982C228.792 685.339 228.727 685.694 228.596 686.026C223.462 699.232 207.293 715.178 201.048 715.178Z" fill="#F6F8FB" stroke="#4D77FF" stroke-width="1.01" stroke-linecap="round" stroke-linejoin="round"/>
<path d="M158.962 715.178C152.692 715.178 136.549 699.232 131.316 685.878C131.051 685.207 131.063 684.458 131.35 683.796C131.637 683.134 132.175 682.613 132.846 682.348C133.517 682.083 134.266 682.095 134.928 682.382C135.59 682.669 136.111 683.207 136.376 683.878C141.313 696.344 154.865 708.562 158.592 709.673C165.257 705.65 207.417 664.353 211.045 654.011C214.995 642.681 213.909 623.476 213.884 623.304C213.838 622.584 214.08 621.875 214.557 621.333C215.034 620.792 215.706 620.462 216.427 620.416C217.147 620.37 217.856 620.612 218.397 621.089C218.939 621.566 219.269 622.238 219.315 622.958C219.315 623.797 220.499 643.446 216.155 655.788C211.811 668.13 164.541 714.289 159.382 715.03L158.962 715.178Z" fill="#F6F8FB" stroke="#4D77FF" stroke-width="1.01" stroke-linecap="round" stroke-linejoin="round"/>
<path d="M180.659 530.961C179.221 530.954 177.844 530.38 176.827 529.363C175.81 528.346 175.235 526.968 175.229 525.53V434.619C175.229 433.179 175.801 431.797 176.819 430.779C177.838 429.761 179.219 429.188 180.659 429.188C182.1 429.188 183.481 429.761 184.499 430.779C185.518 431.797 186.09 433.179 186.09 434.619V525.53C186.09 526.243 185.949 526.95 185.677 527.608C185.404 528.267 185.004 528.866 184.499 529.37C183.995 529.874 183.396 530.274 182.738 530.547C182.079 530.82 181.373 530.961 180.659 530.961Z" fill="#4D77FF"/>
<path d="M216.13 634.066C214.692 634.059 213.315 633.485 212.298 632.468C211.281 631.451 210.706 630.074 210.7 628.635V563.223C210.7 554.961 207.418 547.037 201.576 541.195C195.734 535.353 187.81 532.071 179.549 532.071C171.287 532.071 163.363 535.353 157.521 541.195C151.679 547.037 148.397 554.961 148.397 563.223V628.586C148.397 630.026 147.825 631.408 146.807 632.426C145.788 633.444 144.407 634.017 142.967 634.017C141.527 634.017 140.145 633.444 139.127 632.426C138.108 631.408 137.536 630.026 137.536 628.586V563.173C137.536 552.044 141.957 541.371 149.827 533.501C157.697 525.632 168.37 521.21 179.499 521.21C190.628 521.21 201.302 525.632 209.171 533.501C217.041 541.371 221.462 552.044 221.462 563.173V628.586C221.469 630.016 220.914 631.391 219.917 632.416C218.92 633.441 217.56 634.034 216.13 634.066Z" fill="#4D77FF"/>
<path d="M126.299 675.766L125.383 676.478C122.627 678.619 122.128 682.589 124.269 685.345L128.282 690.511C130.423 693.267 134.393 693.766 137.149 691.625L138.065 690.913C140.821 688.772 141.32 684.802 139.179 682.046L135.166 676.88C133.025 674.124 129.055 673.625 126.299 675.766Z" fill="#F6F8FB" stroke="#4D77FF" stroke-width="1.01" stroke-linecap="round" stroke-linejoin="round"/>
<path d="M220.993 690.881L221.909 691.593C224.665 693.734 228.635 693.235 230.776 690.479L234.789 685.313C236.93 682.557 236.431 678.587 233.675 676.446L232.759 675.734C230.003 673.593 226.033 674.092 223.892 676.848L219.879 682.014C217.738 684.77 218.237 688.74 220.993 690.881Z" fill="#F6F8FB" stroke="#4D77FF" stroke-width="1.01" stroke-linecap="round" stroke-linejoin="round"/>
<path d="M191.027 291.081H188.731C181.615 291.081 175.846 296.85 175.846 303.966V327.095C175.846 334.211 181.615 339.98 188.731 339.98H191.027C198.143 339.98 203.912 334.211 203.912 327.095V303.966C203.912 296.85 198.143 291.081 191.027 291.081Z" fill="#F6F8FB" stroke="#4D77FF" stroke-width="1.01" stroke-linecap="round" stroke-linejoin="round"/>
<path d="M380.699 291.081H378.403C371.287 291.081 365.518 296.85 365.518 303.966V327.095C365.518 334.211 371.287 339.98 378.403 339.98H380.699C387.815 339.98 393.584 334.211 393.584 327.095V303.966C393.584 296.85 387.815 291.081 380.699 291.081Z" fill="#F6F8FB" stroke="#4D77FF" stroke-width="1.01" stroke-linecap="round" stroke-linejoin="round"/>
<path d="M257.698 168.574H315.039C331.478 168.574 347.243 175.104 358.867 186.728C370.491 198.352 377.021 214.117 377.021 230.556V359.184C377.021 381.253 368.254 402.418 352.649 418.023C337.044 433.628 315.88 442.394 293.811 442.394H279.001C268.073 442.394 257.253 440.242 247.158 436.06C237.062 431.879 227.889 425.749 220.162 418.023C212.436 410.296 206.306 401.123 202.125 391.027C197.943 380.932 195.791 370.112 195.791 359.184V230.556C195.791 214.13 202.311 198.376 213.919 186.754C225.526 175.133 241.273 168.594 257.698 168.574Z" fill="#F6F8FB" stroke="#4D77FF" stroke-width="1.01" stroke-linecap="round" stroke-linejoin="round"/>
<path d="M265.054 276.814H236.47C233.893 276.814 231.805 278.902 231.805 281.479V282.318C231.805 284.895 233.893 286.984 236.47 286.984H265.054C267.631 286.984 269.719 284.895 269.719 282.318V281.479C269.719 278.902 267.631 276.814 265.054 276.814Z" fill="#4D77FF" stroke="#4D77FF" stroke-width="1.01" stroke-linecap="round" stroke-linejoin="round"/>
<path d="M339.97 276.814H311.386C308.81 276.814 306.721 278.902 306.721 281.479V282.318C306.721 284.895 308.81 286.984 311.386 286.984H339.97C342.547 286.984 344.636 284.895 344.636 282.318V281.479C344.636 278.902 342.547 276.814 339.97 276.814Z" fill="#4D77FF" stroke="#4D77FF" stroke-width="1.01" stroke-linecap="round" stroke-linejoin="round"/>
<path d="M261.352 307.817C261.352 313.692 258.661 318.431 255.329 318.431C251.996 318.431 249.33 313.692 249.33 307.817C249.33 301.942 252.021 297.178 255.329 297.178C258.636 297.178 261.352 301.942 261.352 307.817Z" fill="#4D77FF" stroke="#4D77FF" stroke-width="1.01" stroke-linecap="round" stroke-linejoin="round"/>
<path d="M328.936 307.817C328.936 313.692 326.246 318.431 322.914 318.431C319.581 318.431 316.891 313.692 316.891 307.817C316.891 301.942 319.581 297.178 322.914 297.178C326.246 297.178 328.936 301.942 328.936 307.817Z" fill="#4D77FF" stroke="#4D77FF" stroke-width="1.01" stroke-linecap="round" stroke-linejoin="round"/>
<path d="M318.791 168.574H253.946C238.503 168.574 223.692 174.709 212.772 185.629C201.852 196.55 195.717 211.36 195.717 226.804V363.628C195.717 384.518 204.015 404.553 218.787 419.324C233.559 434.096 253.593 442.394 274.483 442.394H298.378C308.722 442.398 318.966 440.363 328.524 436.405C338.082 432.448 346.767 426.646 354.081 419.331C361.396 412.017 367.198 403.332 371.155 393.774C375.112 384.216 377.148 373.972 377.144 363.628V226.804C377.144 219.147 375.634 211.565 372.7 204.492C369.766 197.419 365.466 190.994 360.046 185.586C354.625 180.177 348.192 175.89 341.113 172.971C334.034 170.052 326.449 168.558 318.791 168.574ZM363.223 344.349C363.223 344.349 363.223 360.986 346.586 377.648C346.586 377.648 329.01 354.519 321.605 352.668C316.817 351.483 298.995 351.829 286.9 352.224C274.829 351.829 256.982 351.483 252.342 352.668C244.937 354.519 227.362 377.648 227.362 377.648C210.725 360.986 210.725 344.349 210.725 344.349V268.495L219.389 257.091C222.702 252.852 224.602 247.679 224.819 242.303C225.036 236.926 223.559 231.617 220.598 227.125C217.486 222.353 216.131 216.647 216.766 210.986C217.401 205.325 219.987 200.061 224.079 196.097L224.251 195.949C228.215 192.115 233.354 189.728 238.839 189.173C244.325 188.618 249.838 189.926 254.489 192.888L267.424 203.033C273.064 207.437 280.015 209.829 287.171 209.829C294.327 209.829 301.278 207.437 306.918 203.033L319.803 192.888C324.479 189.909 330.023 188.59 335.539 189.145C341.056 189.701 346.225 192.097 350.214 195.949L350.362 196.097C354.46 200.137 357.025 205.476 357.62 211.199C358.214 216.923 356.8 222.675 353.62 227.47C350.762 231.949 349.367 237.206 349.628 242.513C349.888 247.82 351.793 252.914 355.077 257.091L364.037 268.495L363.223 344.349Z" fill="#4D77FF" stroke="#4D77FF" stroke-width="1.01" stroke-linecap="round" stroke-linejoin="round"/>
<path d="M300.254 341.19C300.254 341.19 311.361 339.709 311.361 346.127C311.361 352.544 304.87 357.21 291.935 352.594" fill="#F6F8FB"/>
<path d="M300.254 341.19C300.254 341.19 311.361 339.709 311.361 346.127C311.361 352.544 304.87 357.21 291.935 352.594" stroke="#4D77FF" stroke-width="1.01" stroke-linecap="round" stroke-linejoin="round"/>
<path d="M299.316 288.835V342.498C299.316 345.44 298.149 348.261 296.071 350.344C293.993 352.426 291.174 353.599 288.232 353.606H278.359C271.299 354.1 268.831 352.372 267.992 349.385C267.73 348.39 267.678 347.352 267.839 346.336C268.001 345.321 268.372 344.35 268.93 343.485C268.93 340.721 280.729 340.721 280.729 340.721" fill="#F6F8FB"/>
<path d="M299.316 288.835V342.498C299.316 345.44 298.149 348.261 296.071 350.344C293.993 352.426 291.174 353.599 288.232 353.606H278.359C271.299 354.1 268.831 352.372 267.992 349.385C267.73 348.39 267.678 347.352 267.839 346.336C268.001 345.321 268.372 344.35 268.93 343.485V343.485C268.93 340.721 280.729 340.721 280.729 340.721" stroke="#4D77FF" stroke-width="1.01" stroke-linecap="round" stroke-linejoin="round"/>
<path d="M287.689 384.214C277.387 384.272 267.25 381.625 258.291 376.537C257.41 375.947 256.794 375.036 256.574 373.998C256.354 372.961 256.547 371.878 257.113 370.981C257.679 370.084 258.573 369.443 259.604 369.194C260.635 368.946 261.723 369.11 262.635 369.65C270.394 373.889 279.102 376.09 287.943 376.047C296.785 376.004 305.471 373.718 313.188 369.404C313.662 369.125 314.186 368.945 314.731 368.875C315.276 368.805 315.829 368.845 316.358 368.994C316.887 369.143 317.38 369.398 317.808 369.743C318.236 370.087 318.589 370.515 318.848 371C319.106 371.484 319.263 372.017 319.311 372.564C319.358 373.111 319.294 373.662 319.123 374.184C318.951 374.706 318.676 375.188 318.314 375.601C317.951 376.014 317.509 376.349 317.014 376.587C308.025 381.527 297.946 384.148 287.689 384.214Z" fill="#F6F8FB" stroke="#4D77FF" stroke-width="1.01" stroke-linecap="round" stroke-linejoin="round"/>
<path d="M317.409 323.862H335.33" stroke="#4D77FF" stroke-width="1.01" stroke-linecap="round" stroke-linejoin="round"/>
<path d="M246.22 323.862H264.141" stroke="#4D77FF" stroke-width="1.01" stroke-linecap="round" stroke-linejoin="round"/>
<path d="M175.229 782.22C192.924 782.22 207.269 767.875 207.269 750.18C207.269 732.485 192.924 718.14 175.229 718.14C157.534 718.14 143.189 732.485 143.189 750.18C143.189 767.875 157.534 782.22 175.229 782.22Z" stroke="#4D77FF" stroke-width="0.724166" stroke-linecap="round" stroke-linejoin="round"/>
<path d="M175.179 758.103C173.464 758.103 171.819 757.422 170.606 756.209C169.394 754.996 168.712 753.351 168.712 751.636V731.148C168.712 729.433 169.394 727.788 170.606 726.575C171.819 725.362 173.464 724.681 175.179 724.681C176.895 724.681 178.54 725.362 179.753 726.575C180.965 727.788 181.647 729.433 181.647 731.148V751.636C181.647 753.351 180.965 754.996 179.753 756.209C178.54 757.422 176.895 758.103 175.179 758.103Z" fill="#4D77FF"/>
<path d="M175.229 762.769C172.2 762.762 169.297 761.556 167.155 759.414C165.013 757.272 163.807 754.369 163.8 751.34V741.713C163.8 741.399 163.925 741.098 164.147 740.875C164.369 740.653 164.671 740.528 164.985 740.528C165.142 740.525 165.297 740.553 165.442 740.612C165.588 740.67 165.72 740.757 165.83 740.868C165.941 740.978 166.028 741.11 166.087 741.256C166.145 741.401 166.173 741.557 166.17 741.713V751.34C166.291 753.664 167.3 755.853 168.988 757.455C170.676 759.057 172.914 759.95 175.241 759.95C177.568 759.95 179.807 759.057 181.495 757.455C183.183 755.853 184.191 753.664 184.313 751.34V741.713C184.309 741.557 184.338 741.401 184.396 741.256C184.454 741.11 184.541 740.978 184.652 740.868C184.763 740.757 184.895 740.67 185.04 740.612C185.185 740.553 185.341 740.525 185.497 740.528C185.812 740.528 186.113 740.653 186.335 740.875C186.557 741.098 186.682 741.399 186.682 741.713V751.34C186.676 754.373 185.466 757.28 183.319 759.423C181.172 761.565 178.262 762.769 175.229 762.769Z" fill="#4D77FF"/>
<path d="M175.229 775.061C175.074 775.061 174.922 775.031 174.779 774.971C174.637 774.911 174.508 774.823 174.4 774.713C174.292 774.602 174.207 774.472 174.15 774.328C174.093 774.184 174.065 774.031 174.069 773.876V761.534C174.069 761.207 174.199 760.893 174.43 760.662C174.662 760.43 174.976 760.3 175.303 760.3C175.63 760.3 175.944 760.43 176.176 760.662C176.407 760.893 176.537 761.207 176.537 761.534V773.876C176.542 774.044 176.511 774.211 176.445 774.365C176.379 774.52 176.281 774.658 176.156 774.771C176.032 774.883 175.885 774.968 175.724 775.018C175.564 775.068 175.395 775.083 175.229 775.061Z" fill="#4D77FF"/>
<path d="M183.128 775.703H167.355C167.042 775.697 166.745 775.57 166.524 775.349C166.303 775.128 166.176 774.83 166.17 774.518C166.17 774.204 166.295 773.903 166.517 773.68C166.739 773.458 167.04 773.333 167.355 773.333H183.128C183.442 773.333 183.743 773.458 183.966 773.68C184.188 773.903 184.313 774.204 184.313 774.518C184.306 774.83 184.179 775.128 183.959 775.349C183.738 775.57 183.44 775.697 183.128 775.703Z" fill="#4D77FF"/>
<path d="M387.388 782.22C405.083 782.22 419.428 767.875 419.428 750.18C419.428 732.485 405.083 718.14 387.388 718.14C369.693 718.14 355.348 732.485 355.348 750.18C355.348 767.875 369.693 782.22 387.388 782.22Z" stroke="#4D77FF" stroke-width="0.724166" stroke-linecap="round" stroke-linejoin="round"/>
<path d="M407.16 740.8L397.805 746.206V741.763C397.798 740.752 397.392 739.785 396.676 739.073C395.959 738.361 394.989 737.961 393.979 737.961H372.849C372.348 737.958 371.851 738.054 371.387 738.243C370.923 738.433 370.501 738.712 370.145 739.066C369.79 739.419 369.508 739.839 369.315 740.302C369.123 740.765 369.023 741.261 369.023 741.763V758.794C369.02 759.298 369.117 759.797 369.308 760.263C369.499 760.728 369.781 761.151 370.137 761.507C370.493 761.863 370.916 762.145 371.381 762.336C371.847 762.527 372.346 762.624 372.849 762.62H393.979C394.481 762.62 394.979 762.522 395.443 762.329C395.907 762.137 396.329 761.855 396.684 761.5C397.04 761.145 397.321 760.723 397.514 760.259C397.706 759.794 397.805 759.297 397.805 758.794V754.475L407.16 759.881V740.8Z" fill="#4D77FF"/>
<path d="M281.321 782.22C299.016 782.22 313.361 767.875 313.361 750.18C313.361 732.485 299.016 718.14 281.321 718.14C263.626 718.14 249.281 732.485 249.281 750.18C249.281 767.875 263.626 782.22 281.321 782.22Z" fill="#4D77FF" stroke="#4D77FF" stroke-width="0.724166" stroke-linecap="round" stroke-linejoin="round"/>
<path d="M297.538 743.416H265.104C264.205 743.416 263.318 743.613 262.504 743.994C261.691 744.375 260.971 744.93 260.397 745.621C259.822 746.311 259.406 747.119 259.178 747.988C258.951 748.857 258.918 749.766 259.081 750.649L260.019 755.734C260.087 756.078 260.271 756.389 260.54 756.613C260.81 756.838 261.149 756.963 261.5 756.968H271.373C271.779 756.968 272.168 756.807 272.455 756.52C272.742 756.233 272.904 755.843 272.904 755.438V749.933H289.936V755.438C289.936 755.843 290.097 756.233 290.384 756.52C290.671 756.807 291.06 756.968 291.466 756.968H301.34C301.695 756.969 302.039 756.846 302.314 756.621C302.589 756.396 302.777 756.082 302.845 755.734L303.783 750.649C303.951 749.747 303.913 748.819 303.673 747.933C303.433 747.048 302.997 746.227 302.398 745.533C301.798 744.839 301.05 744.288 300.209 743.922C299.368 743.555 298.455 743.383 297.538 743.416Z" fill="#F6F8FB"/>
<path d="M448.58 124.982H418.416V141.521H448.58V124.982Z" stroke="#4D77FF" stroke-width="0.821067" stroke-linecap="round" stroke-linejoin="round"/>
<path d="M441.94 124.982H418.416V141.521H441.94V124.982Z" fill="#4D77FF" stroke="#4D77FF" stroke-width="0.725073" stroke-linecap="round" stroke-linejoin="round"/>
<path d="M452.752 129.598H448.506V136.88H452.752V129.598Z" fill="#4D77FF" stroke="#4D77FF" stroke-width="0.725073" stroke-linecap="round" stroke-linejoin="round"/>
<path d="M110.902 130.092H105.373V139.57H110.902V130.092Z" fill="#4D77FF" stroke="#4D77FF" stroke-width="0.883086" stroke-linecap="round" stroke-linejoin="round"/>
<path d="M119.591 126.784H114.062V139.595H119.591V126.784Z" fill="#4D77FF" stroke="#4D77FF" stroke-width="0.883086" stroke-linecap="round" stroke-linejoin="round"/>
<path d="M128.28 122.835H122.751V139.57H128.28V122.835Z" fill="#4D77FF" stroke="#4D77FF" stroke-width="0.883086" stroke-linecap="round" stroke-linejoin="round"/>
<path d="M462.897 117.923H99.128V797.943H462.897V117.923Z" stroke="#4D77FF" stroke-linecap="round" stroke-linejoin="round"/>
</g>
<defs>
<filter id="filter0_d" x="0.855453" y="0.5" width="560.264" height="940.177" filterUnits="userSpaceOnUse" color-interpolation-filters="sRGB">
<feFlood flood-opacity="0" result="BackgroundImageFix"/>
<feColorMatrix in="SourceAlpha" type="matrix" values="0 0 0 0 0 0 0 0 0 0 0 0 0 0 0 0 0 0 127 0"/>
<feOffset dy="16"/>
<feGaussianBlur stdDeviation="40"/>
<feColorMatrix type="matrix" values="0 0 0 0 0 0 0 0 0 0 0 0 0 0 0 0 0 0 0.25 0"/>
<feBlend mode="normal" in2="BackgroundImageFix" result="effect1_dropShadow"/>
<feBlend mode="normal" in="SourceGraphic" in2="effect1_dropShadow" result="shape"/>
</filter>
</defs>
</svg>
