<svg width="209" height="62" viewBox="0 0 209 62" fill="none" xmlns="http://www.w3.org/2000/svg">
<g filter="url(#filter0_d)">
<path d="M40.1888 5.74184V41.855C40.1888 48.5034 34.7491 53.9431 28.1007 53.9431H13.6705V48.9567H17.9769C19.7146 48.9567 21.4522 48.579 23.0388 47.899C28.7806 45.4814 32.6337 38.833 30.3672 33.0156C25.9097 21.5319 24.5498 11.6348 31.0471 5.81739L40.1888 5.74184Z" fill="#FFC85A"/>
<path d="M30.9715 0V5.81739H26.6652C24.9275 5.81739 23.1898 6.19514 21.6033 6.8751C15.7859 9.29272 11.6306 16.2434 14.426 21.9096C18.3546 29.918 19.0345 38.0774 15.4837 45.6325L14.5771 47.5213L13.6705 48.8812H4V12.3147C4 5.51519 9.51518 0 16.2392 0H30.9715Z" fill="#FC6899"/>
<path d="M30.2917 33.0156C32.5582 38.833 28.7051 45.4814 22.9633 47.899C21.3767 48.579 19.639 48.9567 17.9014 48.9567H13.595C14.2749 47.899 14.8793 46.7658 15.4082 45.6325C18.9591 38.0774 18.2791 29.918 14.3505 21.9096C11.5551 16.2434 15.786 9.36827 21.5278 6.8751C23.1144 6.19515 24.852 5.89294 26.5897 5.89294H30.8961C24.4743 11.6348 25.8342 21.5319 30.2917 33.0156Z" fill="#003ACC"/>
</g>
<path d="M68.3207 16.4396C68.0185 16.0619 67.6408 15.8352 67.263 15.533C66.8097 15.2308 66.2809 15.0042 65.752 14.7775C65.1476 14.5509 64.5432 14.3242 63.9388 14.2487C63.2589 14.0976 62.5789 14.022 61.899 14.022C60.539 13.9465 59.1036 14.2487 57.9703 15.0042C57.1393 15.6841 56.686 16.7418 56.686 17.7995C56.686 18.4795 56.9126 19.235 57.4415 19.7639C57.9703 20.2927 58.7258 20.746 59.4813 20.9727C60.3879 21.2749 61.5212 21.5771 62.9567 21.8793C64.3921 22.1815 65.8276 22.6348 67.1119 23.1636C68.1696 23.5414 69.1518 24.2969 69.8318 25.128C70.5117 26.1101 70.8139 27.3189 70.8139 28.4522C70.8139 29.4343 70.5873 30.4165 70.2095 31.3231C69.7562 32.1542 69.1518 32.8341 68.3963 33.363C67.5652 33.8918 66.6586 34.3451 65.6765 34.5718C64.6188 34.7984 63.4855 34.9495 62.3523 34.9495C61.219 34.9495 60.0102 34.7984 58.8769 34.5718C57.7437 34.3451 56.686 33.9674 55.7038 33.5141C54.7217 33.0608 53.7395 32.4564 52.9084 31.7008L54.3439 29.2077C54.7217 29.661 55.175 30.0387 55.7038 30.3409C56.3082 30.7187 56.9126 31.0964 57.5926 31.3231C58.3481 31.6253 59.1036 31.9275 59.9346 32.0786C60.7657 32.3053 61.5968 32.3808 62.5034 32.3808C63.8633 32.4564 65.2232 32.1542 66.3564 31.4742C67.263 30.9453 67.7919 29.8876 67.7163 28.8299C67.7919 28.0744 67.4897 27.3189 66.9608 26.7145C66.2809 26.1101 65.5254 25.6568 64.6943 25.4302C63.7122 25.0524 62.4278 24.7502 61.0679 24.3725C59.708 24.0702 58.4236 23.6169 57.1393 23.0881C56.1571 22.7103 55.3261 22.1059 54.7217 21.2749C54.1173 20.3683 53.8906 19.3106 53.8906 18.2529C53.8151 16.8929 54.1928 15.6086 54.9483 14.4753C55.7038 13.4176 56.7615 12.5866 57.9703 12.1333C59.3302 11.6044 60.7657 11.3778 62.2767 11.3778C63.2589 11.3778 64.241 11.4533 65.2232 11.68C66.1298 11.9066 66.9608 12.2088 67.7919 12.5866C68.5474 12.9643 69.3029 13.4176 69.9829 14.022L68.3207 16.4396Z" fill="#003ACC"/>
<path d="M94.2346 17.7995H97.03L89.7771 34.7984H87.284L83.8842 26.7901L80.6355 34.7984H78.1424L70.8895 17.7995H73.6093L79.5023 32.003L82.2221 25.0524L79.3512 17.8751H81.8443L83.8842 23.2392L85.9241 17.8751H88.4172L85.6219 25.0524L88.3417 32.003L94.2346 17.7995Z" fill="#003ACC"/>
<path d="M97.1055 29.8876C97.1055 28.9055 97.4077 27.8478 98.0121 27.0923C98.692 26.2612 99.5986 25.6568 100.581 25.279C101.79 24.8257 103.074 24.5991 104.358 24.5991C105.189 24.5991 105.945 24.6746 106.776 24.7502C107.531 24.8257 108.287 25.0524 109.042 25.279V24.0702C109.118 22.937 108.665 21.8793 107.834 21.0482C106.927 20.2927 105.718 19.8394 104.509 19.915C103.603 19.915 102.696 20.0661 101.79 20.4438C100.807 20.8216 99.9008 21.3504 99.0698 21.8793L98.0121 19.8394C99.0698 19.0839 100.203 18.5551 101.336 18.1018C102.47 17.724 103.603 17.4973 104.812 17.4973C106.7 17.4218 108.589 18.0262 109.949 19.3106C111.233 20.6705 111.989 22.4837 111.838 24.2969V31.4742C111.838 31.7764 111.913 32.003 112.064 32.2297C112.216 32.3808 112.518 32.5319 112.744 32.5319V34.7229C112.442 34.7984 112.216 34.7984 111.989 34.7984C111.762 34.7984 111.611 34.7984 111.46 34.7984C110.931 34.7984 110.327 34.6473 109.949 34.2695C109.647 33.9673 109.42 33.514 109.345 33.0607L109.269 32.003C108.514 32.9852 107.531 33.7407 106.398 34.194C105.265 34.7229 104.056 34.9495 102.847 34.9495C101.79 34.9495 100.732 34.7229 99.8253 34.2695C98.9942 33.8162 98.2387 33.2118 97.7099 32.3808C97.4077 31.7008 97.1055 30.7942 97.1055 29.8876ZM108.287 31.0964C108.514 30.7942 108.74 30.492 108.891 30.1898C109.042 29.9632 109.118 29.661 109.118 29.3588V27.2434C108.438 27.0167 107.683 26.7901 107.003 26.639C106.247 26.4879 105.567 26.4123 104.812 26.4123C103.603 26.3368 102.394 26.6389 101.261 27.2434C100.43 27.6967 99.9008 28.6033 99.9008 29.5854C99.9008 30.1143 100.052 30.7187 100.354 31.172C100.656 31.7008 101.11 32.1541 101.639 32.3808C102.318 32.7585 103.074 32.9096 103.754 32.8341C104.661 32.8341 105.492 32.683 106.323 32.3052C107.078 32.1541 107.758 31.7008 108.287 31.0964Z" fill="#003ACC"/>
<path d="M114.407 29.8876C114.407 28.9055 114.709 27.8478 115.313 27.0923C115.993 26.2612 116.9 25.6568 117.882 25.279C119.091 24.8257 120.375 24.5991 121.659 24.5991C122.491 24.5991 123.246 24.6746 124.077 24.7502C124.833 24.8257 125.588 25.0524 126.344 25.279V24.0702C126.419 22.937 125.966 21.8793 125.135 21.0482C124.228 20.2927 123.019 19.8394 121.811 19.915C120.904 19.915 119.997 20.0661 119.091 20.4438C118.109 20.8216 117.202 21.3504 116.371 21.8793L115.313 19.8394C116.371 19.0839 117.504 18.5551 118.637 18.1018C119.771 17.724 120.904 17.4973 122.113 17.4973C124.002 17.4218 125.89 18.0262 127.326 19.3106C128.61 20.6705 129.366 22.4837 129.215 24.2969V31.4742C129.215 31.7764 129.29 32.003 129.441 32.2297C129.592 32.3808 129.894 32.5319 130.121 32.5319V34.7229L129.366 34.7984C129.215 34.7984 129.063 34.7984 128.837 34.7984C128.308 34.7984 127.704 34.6473 127.326 34.2695C127.024 33.9673 126.797 33.514 126.721 33.0607L126.646 32.003C125.89 32.9852 124.908 33.7407 123.699 34.194C122.566 34.7229 121.357 34.9495 120.148 34.9495C119.091 34.9495 118.033 34.7229 117.126 34.2695C116.295 33.8162 115.54 33.2118 115.011 32.3808C114.709 31.7008 114.407 30.7942 114.407 29.8876ZM125.588 31.0964C125.815 30.7942 126.041 30.492 126.193 30.1898C126.344 29.9632 126.419 29.661 126.419 29.3588V27.2434C125.739 27.0167 124.984 26.7901 124.304 26.639C123.548 26.4879 122.868 26.4123 122.113 26.4123C120.904 26.3368 119.62 26.6389 118.562 27.2434C117.731 27.6967 117.202 28.6033 117.202 29.5854C117.202 30.1143 117.353 30.7187 117.655 31.172C117.957 31.7008 118.411 32.1541 118.94 32.3808C119.62 32.7585 120.375 32.9096 121.055 32.8341C121.962 32.8341 122.793 32.683 123.624 32.3052C124.379 32.1541 125.059 31.7008 125.588 31.0964Z" fill="#003ACC"/>
<path d="M138.96 35.1761C137.601 35.1761 136.241 34.9495 134.956 34.4962C133.748 34.0429 132.614 33.2874 131.783 32.3808L132.916 30.3409C133.748 31.172 134.73 31.8519 135.863 32.3052C136.845 32.683 137.827 32.9096 138.885 32.9096C139.867 32.9852 140.849 32.7585 141.756 32.2297C142.436 31.8519 142.889 31.0964 142.889 30.2654C142.965 29.7365 142.738 29.2077 142.285 28.8299C141.831 28.4522 141.227 28.2255 140.698 28.0744L138.205 27.3945C137.147 27.0923 136.165 26.7145 135.183 26.2612C134.427 25.959 133.823 25.4301 133.37 24.8257C132.916 24.1458 132.69 23.3903 132.765 22.6348C132.765 21.6526 133.068 20.6705 133.596 19.915C134.201 19.1595 135.032 18.5551 135.938 18.1773C136.996 17.7995 138.205 17.5729 139.338 17.5729C140.547 17.5729 141.68 17.724 142.814 18.1773C143.796 18.5551 144.702 19.1595 145.458 19.915L144.173 21.8793C143.569 21.1993 142.814 20.6705 141.982 20.2927C141.151 19.915 140.169 19.7639 139.263 19.7639C138.658 19.7639 138.129 19.8394 137.525 19.9905C136.996 20.1416 136.543 20.3683 136.09 20.746C135.712 21.1238 135.485 21.7282 135.561 22.257C135.561 22.7103 135.712 23.1636 136.014 23.5414C136.392 23.9191 136.845 24.1458 137.298 24.3724C137.903 24.5991 138.583 24.8257 139.414 25.0524C140.698 25.4301 141.831 25.8079 142.738 26.1857C143.569 26.4879 144.325 26.9412 144.929 27.6211C145.458 28.3011 145.76 29.2077 145.684 30.0387C145.76 31.5497 145.08 32.9852 143.871 33.8162C142.36 34.7984 140.698 35.2517 138.96 35.1761Z" fill="#003ACC"/>
<path d="M157.093 34.0429L156.11 34.4962C155.657 34.7229 155.128 34.874 154.675 34.9495C154.071 35.1006 153.542 35.1762 152.937 35.1762C152.257 35.1762 151.653 35.0251 150.973 34.7984C150.369 34.5718 149.915 34.1185 149.538 33.5896C149.16 32.9852 149.009 32.3052 149.009 31.5497V20.0661H146.667V17.7995H149.009V12.1333H151.88V17.7995H155.733V20.0661H151.88V30.7187C151.88 31.2475 152.106 31.7764 152.484 32.0786C152.862 32.3808 153.315 32.5319 153.768 32.5319C154.297 32.5319 154.826 32.4563 155.355 32.2297C155.657 32.0786 156.035 31.9275 156.337 31.7764L157.093 34.0429Z" fill="#003ACC"/>
<path d="M173.865 34.7984H170.994V25.3546C171.069 23.9947 170.767 22.6348 170.087 21.426C169.483 20.5949 168.501 20.0661 167.443 20.1416C166.687 20.1416 165.856 20.3683 165.176 20.746C164.421 21.1238 163.741 21.6526 163.212 22.3326C162.608 23.0125 162.23 23.768 162.003 24.5991V34.874H159.132V11H162.003V21.5771C162.683 20.3683 163.59 19.3861 164.799 18.7062C165.932 18.0262 167.216 17.6484 168.576 17.6484C169.483 17.6484 170.314 17.7995 171.145 18.1773C171.825 18.5551 172.429 19.0084 172.807 19.6883C173.26 20.3683 173.563 21.1238 173.714 21.9548C173.94 22.8614 174.016 23.8436 174.016 24.7502L173.865 34.7984Z" fill="#003ACC"/>
<path d="M177.869 39.4825L178.7 39.5581C179.002 39.5581 179.229 39.6336 179.38 39.6336C179.682 39.6336 180.06 39.4825 180.286 39.2559C180.664 38.8781 180.966 38.3493 181.118 37.896C181.42 37.216 181.873 36.2339 182.326 34.874L175.073 17.8751H178.096L183.837 32.003L189.05 17.8751H191.921L183.611 39.407C183.384 39.9358 183.082 40.3891 182.78 40.8424C182.402 41.2957 181.873 41.6735 181.344 41.9002C180.664 42.2024 179.909 42.2779 179.229 42.2779C179.002 42.2779 178.851 42.2779 178.624 42.2024C178.398 42.2024 178.096 42.1268 177.869 42.0513V39.4825Z" fill="#003ACC"/>
<path d="M192.299 29.8876C192.299 28.9055 192.601 27.8478 193.206 27.0923C193.886 26.2612 194.792 25.6568 195.774 25.279C196.983 24.8257 198.268 24.5991 199.552 24.5991C200.383 24.5991 201.138 24.6746 201.97 24.7502C202.725 24.8257 203.481 25.0524 204.236 25.279V24.0702C204.312 22.937 203.858 21.8793 203.027 21.0482C202.121 20.2927 200.912 19.8394 199.703 19.915C198.796 19.915 197.89 20.0661 196.983 20.4438C196.001 20.8216 195.094 21.3504 194.263 21.8793L193.206 19.8394C194.263 19.0839 195.397 18.5551 196.53 18.1018C197.663 17.724 198.796 17.4973 200.005 17.4973C201.894 17.4218 203.783 18.0262 205.218 19.3106C206.503 20.6705 207.258 22.4837 207.107 24.2969V31.4742C207.107 31.7764 207.183 32.003 207.334 32.2297C207.485 32.3808 207.787 32.5319 208.014 32.5319V34.7229C207.711 34.7984 207.485 34.7984 207.258 34.7984C207.107 34.7984 206.88 34.7984 206.729 34.7984C206.2 34.8739 205.596 34.6473 205.218 34.2695C204.916 33.9673 204.689 33.514 204.614 33.0607L204.538 32.003C203.783 32.9852 202.801 33.7407 201.592 34.194C200.459 34.7229 199.25 34.9495 198.041 34.9495C196.983 34.9495 195.926 34.7229 195.019 34.2695C194.188 33.8162 193.432 33.2118 192.903 32.3808C192.601 31.7008 192.299 30.7942 192.299 29.8876ZM203.481 31.0964C203.707 30.7942 203.934 30.492 204.085 30.1898C204.236 29.9632 204.312 29.661 204.312 29.3588V27.2434C203.632 27.0167 202.876 26.7901 202.196 26.639C201.441 26.4879 200.761 26.4123 200.005 26.4123C198.796 26.3368 197.512 26.6389 196.454 27.2434C195.623 27.6967 195.094 28.6033 195.094 29.5854C195.094 30.1143 195.246 30.7187 195.548 31.172C195.85 31.7008 196.303 32.1541 196.832 32.3808C197.512 32.7585 198.268 32.9096 198.948 32.8341C199.854 32.8341 200.685 32.683 201.516 32.3052C202.272 32.1541 202.952 31.7008 203.481 31.0964Z" fill="#003ACC"/>
<defs>
<filter id="filter0_d" x="0" y="0" width="44.1888" height="61.9431" filterUnits="userSpaceOnUse" color-interpolation-filters="sRGB">
<feFlood flood-opacity="0" result="BackgroundImageFix"/>
<feColorMatrix in="SourceAlpha" type="matrix" values="0 0 0 0 0 0 0 0 0 0 0 0 0 0 0 0 0 0 127 0"/>
<feOffset dy="4"/>
<feGaussianBlur stdDeviation="2"/>
<feColorMatrix type="matrix" values="0 0 0 0 0 0 0 0 0 0 0 0 0 0 0 0 0 0 0.25 0"/>
<feBlend mode="normal" in2="BackgroundImageFix" result="effect1_dropShadow"/>
<feBlend mode="normal" in="SourceGraphic" in2="effect1_dropShadow" result="shape"/>
</filter>
</defs>
</svg>
