<svg width="225" height="74" viewBox="0 0 225 74" fill="none" xmlns="http://www.w3.org/2000/svg">
<rect width="224.014" height="73.9431" rx="10" fill="white"/>
<g filter="url(#filter0_d)">
<path d="M46.1887 15.7418V51.855C46.1887 58.5034 40.7491 63.9431 34.1006 63.9431H19.6705V58.9567H23.9769C25.7145 58.9567 27.4522 58.579 29.0388 57.899C34.7806 55.4814 38.6337 48.833 36.3672 43.0156C31.9097 31.5319 30.5498 21.6348 37.0471 15.8174L46.1887 15.7418Z" fill="#FFC85A"/>
<path d="M36.9715 10V15.8174H32.6652C30.9275 15.8174 29.1898 16.1951 27.6033 16.8751C21.7859 19.2927 17.6306 26.2434 20.426 31.9096C24.3546 39.918 25.0345 48.0774 21.4837 55.6325L20.5771 57.5213L19.6705 58.8812H10V22.3147C10 15.5152 15.5152 10 22.2392 10H36.9715Z" fill="#FC6899"/>
<path d="M36.2916 43.0156C38.5581 48.833 34.705 55.4814 28.9632 57.899C27.3766 58.579 25.639 58.9567 23.9013 58.9567H19.5949C20.2749 57.899 20.8793 56.7658 21.4081 55.6325C24.959 48.0774 24.2791 39.918 20.3504 31.9096C17.5551 26.2434 21.7859 19.3683 27.5277 16.8751C29.1143 16.1951 30.8519 15.8929 32.5896 15.8929H36.896C30.4742 21.6348 31.8341 31.5319 36.2916 43.0156Z" fill="#003ACC"/>
</g>
<path d="M74.3207 26.4396C74.0185 26.0619 73.6408 25.8352 73.263 25.533C72.8097 25.2308 72.2809 25.0042 71.752 24.7775C71.1476 24.5509 70.5432 24.3242 69.9388 24.2487C69.2589 24.0976 68.5789 24.022 67.899 24.022C66.539 23.9465 65.1036 24.2487 63.9703 25.0042C63.1393 25.6841 62.686 26.7418 62.686 27.7995C62.686 28.4795 62.9126 29.235 63.4415 29.7639C63.9703 30.2927 64.7258 30.746 65.4813 30.9727C66.3879 31.2749 67.5212 31.5771 68.9567 31.8793C70.3921 32.1815 71.8276 32.6348 73.1119 33.1636C74.1696 33.5414 75.1518 34.2969 75.8318 35.128C76.5117 36.1101 76.8139 37.3189 76.8139 38.4522C76.8139 39.4343 76.5873 40.4165 76.2095 41.3231C75.7562 42.1542 75.1518 42.8341 74.3963 43.363C73.5652 43.8918 72.6586 44.3451 71.6765 44.5718C70.6188 44.7984 69.4855 44.9495 68.3523 44.9495C67.219 44.9495 66.0102 44.7984 64.8769 44.5718C63.7437 44.3451 62.686 43.9674 61.7038 43.5141C60.7217 43.0608 59.7395 42.4564 58.9084 41.7008L60.3439 39.2077C60.7217 39.661 61.175 40.0387 61.7038 40.3409C62.3082 40.7187 62.9126 41.0964 63.5926 41.3231C64.3481 41.6253 65.1036 41.9275 65.9346 42.0786C66.7657 42.3053 67.5968 42.3808 68.5034 42.3808C69.8633 42.4564 71.2232 42.1542 72.3564 41.4742C73.263 40.9453 73.7919 39.8876 73.7163 38.8299C73.7919 38.0744 73.4897 37.3189 72.9608 36.7145C72.2809 36.1101 71.5254 35.6568 70.6943 35.4302C69.7122 35.0524 68.4278 34.7502 67.0679 34.3725C65.708 34.0702 64.4236 33.6169 63.1393 33.0881C62.1571 32.7103 61.3261 32.1059 60.7217 31.2749C60.1173 30.3683 59.8906 29.3106 59.8906 28.2529C59.8151 26.8929 60.1928 25.6086 60.9483 24.4753C61.7038 23.4176 62.7615 22.5866 63.9703 22.1333C65.3302 21.6044 66.7657 21.3778 68.2767 21.3778C69.2589 21.3778 70.241 21.4533 71.2232 21.68C72.1298 21.9066 72.9608 22.2088 73.7919 22.5866C74.5474 22.9643 75.3029 23.4176 75.9829 24.022L74.3207 26.4396Z" fill="#003ACC"/>
<path d="M100.235 27.7995H103.03L95.7771 44.7984H93.2839L89.8842 36.7901L86.6355 44.7984H84.1423L76.8895 27.7995H79.6093L85.5022 42.003L88.2221 35.0524L85.3511 27.8751H87.8443L89.8842 33.2392L91.924 27.8751H94.4172L91.6218 35.0524L94.3417 42.003L100.235 27.7995Z" fill="#003ACC"/>
<path d="M103.105 39.8876C103.105 38.9055 103.408 37.8478 104.012 37.0923C104.692 36.2612 105.599 35.6568 106.581 35.279C107.79 34.8257 109.074 34.5991 110.358 34.5991C111.189 34.5991 111.945 34.6746 112.776 34.7502C113.531 34.8257 114.287 35.0524 115.042 35.279V34.0702C115.118 32.937 114.665 31.8793 113.834 31.0482C112.927 30.2927 111.718 29.8394 110.509 29.915C109.603 29.915 108.696 30.0661 107.79 30.4438C106.807 30.8216 105.901 31.3504 105.07 31.8793L104.012 29.8394C105.07 29.0839 106.203 28.5551 107.336 28.1018C108.47 27.724 109.603 27.4973 110.812 27.4973C112.7 27.4218 114.589 28.0262 115.949 29.3106C117.233 30.6705 117.989 32.4837 117.838 34.2969V41.4742C117.838 41.7764 117.913 42.003 118.064 42.2297C118.216 42.3808 118.518 42.5319 118.744 42.5319V44.7229C118.442 44.7984 118.216 44.7984 117.989 44.7984C117.762 44.7984 117.611 44.7984 117.46 44.7984C116.931 44.7984 116.327 44.6473 115.949 44.2695C115.647 43.9673 115.42 43.514 115.345 43.0607L115.269 42.003C114.514 42.9852 113.531 43.7407 112.398 44.194C111.265 44.7229 110.056 44.9495 108.847 44.9495C107.79 44.9495 106.732 44.7229 105.825 44.2695C104.994 43.8162 104.239 43.2118 103.71 42.3808C103.408 41.7008 103.105 40.7942 103.105 39.8876ZM114.287 41.0964C114.514 40.7942 114.74 40.492 114.891 40.1898C115.042 39.9632 115.118 39.661 115.118 39.3588V37.2434C114.438 37.0167 113.683 36.7901 113.003 36.639C112.247 36.4879 111.567 36.4123 110.812 36.4123C109.603 36.3368 108.394 36.6389 107.261 37.2434C106.43 37.6967 105.901 38.6033 105.901 39.5854C105.901 40.1143 106.052 40.7187 106.354 41.172C106.656 41.7008 107.11 42.1541 107.639 42.3808C108.318 42.7585 109.074 42.9096 109.754 42.8341C110.661 42.8341 111.492 42.683 112.323 42.3052C113.078 42.1541 113.758 41.7008 114.287 41.0964Z" fill="#003ACC"/>
<path d="M120.407 39.8876C120.407 38.9055 120.709 37.8478 121.313 37.0923C121.993 36.2612 122.9 35.6568 123.882 35.279C125.091 34.8257 126.375 34.5991 127.659 34.5991C128.49 34.5991 129.246 34.6746 130.077 34.7502C130.833 34.8257 131.588 35.0524 132.344 35.279V34.0702C132.419 32.937 131.966 31.8793 131.135 31.0482C130.228 30.2927 129.019 29.8394 127.811 29.915C126.904 29.915 125.997 30.0661 125.091 30.4438C124.109 30.8216 123.202 31.3504 122.371 31.8793L121.313 29.8394C122.371 29.0839 123.504 28.5551 124.637 28.1018C125.771 27.724 126.904 27.4973 128.113 27.4973C130.001 27.4218 131.89 28.0262 133.326 29.3106C134.61 30.6705 135.366 32.4837 135.214 34.2969V41.4742C135.214 41.7764 135.29 42.003 135.441 42.2297C135.592 42.3808 135.894 42.5319 136.121 42.5319V44.7229L135.366 44.7984C135.214 44.7984 135.063 44.7984 134.837 44.7984C134.308 44.7984 133.703 44.6473 133.326 44.2695C133.024 43.9673 132.797 43.514 132.721 43.0607L132.646 42.003C131.89 42.9852 130.908 43.7407 129.699 44.194C128.566 44.7229 127.357 44.9495 126.148 44.9495C125.091 44.9495 124.033 44.7229 123.126 44.2695C122.295 43.8162 121.54 43.2118 121.011 42.3808C120.709 41.7008 120.407 40.7942 120.407 39.8876ZM131.588 41.0964C131.815 40.7942 132.041 40.492 132.192 40.1898C132.344 39.9632 132.419 39.661 132.419 39.3588V37.2434C131.739 37.0167 130.984 36.7901 130.304 36.639C129.548 36.4879 128.868 36.4123 128.113 36.4123C126.904 36.3368 125.62 36.6389 124.562 37.2434C123.731 37.6967 123.202 38.6033 123.202 39.5854C123.202 40.1143 123.353 40.7187 123.655 41.172C123.957 41.7008 124.411 42.1541 124.94 42.3808C125.62 42.7585 126.375 42.9096 127.055 42.8341C127.962 42.8341 128.793 42.683 129.624 42.3052C130.379 42.1541 131.059 41.7008 131.588 41.0964Z" fill="#003ACC"/>
<path d="M144.96 45.1761C143.601 45.1761 142.241 44.9495 140.956 44.4962C139.748 44.0429 138.614 43.2874 137.783 42.3808L138.916 40.3409C139.747 41.172 140.73 41.8519 141.863 42.3052C142.845 42.683 143.827 42.9096 144.885 42.9096C145.867 42.9852 146.849 42.7585 147.756 42.2297C148.436 41.8519 148.889 41.0964 148.889 40.2654C148.965 39.7365 148.738 39.2077 148.285 38.8299C147.831 38.4522 147.227 38.2255 146.698 38.0744L144.205 37.3945C143.147 37.0923 142.165 36.7145 141.183 36.2612C140.427 35.959 139.823 35.4301 139.37 34.8257C138.916 34.1458 138.69 33.3903 138.765 32.6348C138.765 31.6526 139.068 30.6705 139.596 29.915C140.201 29.1595 141.032 28.5551 141.938 28.1773C142.996 27.7995 144.205 27.5729 145.338 27.5729C146.547 27.5729 147.68 27.724 148.814 28.1773C149.796 28.5551 150.702 29.1595 151.458 29.915L150.173 31.8793C149.569 31.1993 148.814 30.6705 147.982 30.2927C147.151 29.915 146.169 29.7639 145.263 29.7639C144.658 29.7639 144.129 29.8394 143.525 29.9905C142.996 30.1416 142.543 30.3683 142.09 30.746C141.712 31.1238 141.485 31.7282 141.561 32.257C141.561 32.7103 141.712 33.1636 142.014 33.5414C142.392 33.9191 142.845 34.1458 143.298 34.3724C143.903 34.5991 144.583 34.8257 145.414 35.0524C146.698 35.4301 147.831 35.8079 148.738 36.1857C149.569 36.4879 150.325 36.9412 150.929 37.6211C151.458 38.3011 151.76 39.2077 151.684 40.0387C151.76 41.5497 151.08 42.9852 149.871 43.8162C148.36 44.7984 146.698 45.2517 144.96 45.1761Z" fill="#003ACC"/>
<path d="M163.093 44.0429L162.11 44.4962C161.657 44.7229 161.128 44.874 160.675 44.9495C160.071 45.1006 159.542 45.1762 158.937 45.1762C158.257 45.1762 157.653 45.0251 156.973 44.7984C156.369 44.5718 155.915 44.1185 155.538 43.5896C155.16 42.9852 155.009 42.3052 155.009 41.5497V30.0661H152.667V27.7995H155.009V22.1333H157.88V27.7995H161.733V30.0661H157.88V40.7187C157.88 41.2475 158.106 41.7764 158.484 42.0786C158.862 42.3808 159.315 42.5319 159.768 42.5319C160.297 42.5319 160.826 42.4563 161.355 42.2297C161.657 42.0786 162.035 41.9275 162.337 41.7764L163.093 44.0429Z" fill="#003ACC"/>
<path d="M179.865 44.7984H176.994V35.3546C177.069 33.9947 176.767 32.6348 176.087 31.426C175.483 30.5949 174.501 30.0661 173.443 30.1416C172.687 30.1416 171.856 30.3683 171.176 30.746C170.421 31.1238 169.741 31.6526 169.212 32.3326C168.608 33.0125 168.23 33.768 168.003 34.5991V44.874H165.132V21H168.003V31.5771C168.683 30.3683 169.59 29.3861 170.799 28.7062C171.932 28.0262 173.216 27.6484 174.576 27.6484C175.483 27.6484 176.314 27.7995 177.145 28.1773C177.825 28.5551 178.429 29.0084 178.807 29.6883C179.26 30.3683 179.563 31.1238 179.714 31.9548C179.94 32.8614 180.016 33.8436 180.016 34.7502L179.865 44.7984Z" fill="#003ACC"/>
<path d="M183.869 49.4825L184.7 49.5581C185.002 49.5581 185.229 49.6336 185.38 49.6336C185.682 49.6336 186.06 49.4825 186.287 49.2559C186.664 48.8781 186.966 48.3493 187.118 47.896C187.42 47.216 187.873 46.2339 188.326 44.874L181.074 27.8751H184.096L189.837 42.003L195.05 27.8751H197.921L189.611 49.407C189.384 49.9358 189.082 50.3891 188.78 50.8424C188.402 51.2957 187.873 51.6735 187.344 51.9002C186.664 52.2024 185.909 52.2779 185.229 52.2779C185.002 52.2779 184.851 52.2779 184.624 52.2024C184.398 52.2024 184.096 52.1268 183.869 52.0513V49.4825Z" fill="#003ACC"/>
<path d="M198.299 39.8876C198.299 38.9055 198.601 37.8478 199.206 37.0923C199.886 36.2612 200.792 35.6568 201.774 35.279C202.983 34.8257 204.268 34.5991 205.552 34.5991C206.383 34.5991 207.139 34.6746 207.97 34.7502C208.725 34.8257 209.481 35.0524 210.236 35.279V34.0702C210.312 32.937 209.858 31.8793 209.027 31.0482C208.121 30.2927 206.912 29.8394 205.703 29.915C204.796 29.915 203.89 30.0661 202.983 30.4438C202.001 30.8216 201.095 31.3504 200.263 31.8793L199.206 29.8394C200.263 29.0839 201.397 28.5551 202.53 28.1018C203.663 27.724 204.796 27.4973 206.005 27.4973C207.894 27.4218 209.783 28.0262 211.218 29.3106C212.503 30.6705 213.258 32.4837 213.107 34.2969V41.4742C213.107 41.7764 213.183 42.003 213.334 42.2297C213.485 42.3808 213.787 42.5319 214.014 42.5319V44.7229C213.711 44.7984 213.485 44.7984 213.258 44.7984C213.107 44.7984 212.88 44.7984 212.729 44.7984C212.2 44.8739 211.596 44.6473 211.218 44.2695C210.916 43.9673 210.689 43.514 210.614 43.0607L210.538 42.003C209.783 42.9852 208.801 43.7407 207.592 44.194C206.459 44.7229 205.25 44.9495 204.041 44.9495C202.983 44.9495 201.926 44.7229 201.019 44.2695C200.188 43.8162 199.432 43.2118 198.904 42.3808C198.601 41.7008 198.299 40.7942 198.299 39.8876ZM209.481 41.0964C209.707 40.7942 209.934 40.492 210.085 40.1898C210.236 39.9632 210.312 39.661 210.312 39.3588V37.2434C209.632 37.0167 208.876 36.7901 208.196 36.639C207.441 36.4879 206.761 36.4123 206.005 36.4123C204.796 36.3368 203.512 36.6389 202.454 37.2434C201.623 37.6967 201.094 38.6033 201.094 39.5854C201.094 40.1143 201.246 40.7187 201.548 41.172C201.85 41.7008 202.303 42.1541 202.832 42.3808C203.512 42.7585 204.268 42.9096 204.948 42.8341C205.854 42.8341 206.685 42.683 207.516 42.3052C208.272 42.1541 208.952 41.7008 209.481 41.0964Z" fill="#003ACC"/>
<defs>
<filter id="filter0_d" x="6" y="10" width="44.1887" height="61.9431" filterUnits="userSpaceOnUse" color-interpolation-filters="sRGB">
<feFlood flood-opacity="0" result="BackgroundImageFix"/>
<feColorMatrix in="SourceAlpha" type="matrix" values="0 0 0 0 0 0 0 0 0 0 0 0 0 0 0 0 0 0 127 0"/>
<feOffset dy="4"/>
<feGaussianBlur stdDeviation="2"/>
<feColorMatrix type="matrix" values="0 0 0 0 0 0 0 0 0 0 0 0 0 0 0 0 0 0 0.25 0"/>
<feBlend mode="normal" in2="BackgroundImageFix" result="effect1_dropShadow"/>
<feBlend mode="normal" in="SourceGraphic" in2="effect1_dropShadow" result="shape"/>
</filter>
</defs>
</svg>
